<svg aria-roledescription="stateDiagram" role="graphics-document document" viewBox="0 0 742.921875 483.8999938964844" style="max-width: 742.922px; background-color: white;" class="statediagram" xmlns:xlink="http://www.w3.org/1999/xlink" xmlns="http://www.w3.org/2000/svg" width="100%" id="my-svg"><style>#my-svg{font-family:"trebuchet ms",verdana,arial,sans-serif;font-size:16px;fill:#333;}#my-svg .error-icon{fill:#552222;}#my-svg .error-text{fill:#552222;stroke:#552222;}#my-svg .edge-thickness-normal{stroke-width:1px;}#my-svg .edge-thickness-thick{stroke-width:3.5px;}#my-svg .edge-pattern-solid{stroke-dasharray:0;}#my-svg .edge-thickness-invisible{stroke-width:0;fill:none;}#my-svg .edge-pattern-dashed{stroke-dasharray:3;}#my-svg .edge-pattern-dotted{stroke-dasharray:2;}#my-svg .marker{fill:#333333;stroke:#333333;}#my-svg .marker.cross{stroke:#333333;}#my-svg svg{font-family:"trebuchet ms",verdana,arial,sans-serif;font-size:16px;}#my-svg p{margin:0;}#my-svg defs #statediagram-barbEnd{fill:#333333;stroke:#333333;}#my-svg g.stateGroup text{fill:#9370DB;stroke:none;font-size:10px;}#my-svg g.stateGroup text{fill:#333;stroke:none;font-size:10px;}#my-svg g.stateGroup .state-title{font-weight:bolder;fill:#131300;}#my-svg g.stateGroup rect{fill:#ECECFF;stroke:#9370DB;}#my-svg g.stateGroup line{stroke:#333333;stroke-width:1;}#my-svg .transition{stroke:#333333;stroke-width:1;fill:none;}#my-svg .stateGroup .composit{fill:white;border-bottom:1px;}#my-svg .stateGroup .alt-composit{fill:#e0e0e0;border-bottom:1px;}#my-svg .state-note{stroke:#aaaa33;fill:#fff5ad;}#my-svg .state-note text{fill:black;stroke:none;font-size:10px;}#my-svg .stateLabel .box{stroke:none;stroke-width:0;fill:#ECECFF;opacity:0.5;}#my-svg .edgeLabel .label rect{fill:#ECECFF;opacity:0.5;}#my-svg .edgeLabel{background-color:rgba(232,232,232, 0.8);text-align:center;}#my-svg .edgeLabel p{background-color:rgba(232,232,232, 0.8);}#my-svg .edgeLabel rect{opacity:0.5;background-color:rgba(232,232,232, 0.8);fill:rgba(232,232,232, 0.8);}#my-svg .edgeLabel .label text{fill:#333;}#my-svg .label div .edgeLabel{color:#333;}#my-svg .stateLabel text{fill:#131300;font-size:10px;font-weight:bold;}#my-svg .node circle.state-start{fill:#333333;stroke:#333333;}#my-svg .node .fork-join{fill:#333333;stroke:#333333;}#my-svg .node circle.state-end{fill:#9370DB;stroke:white;stroke-width:1.5;}#my-svg .end-state-inner{fill:white;stroke-width:1.5;}#my-svg .node rect{fill:#ECECFF;stroke:#9370DB;stroke-width:1px;}#my-svg .node polygon{fill:#ECECFF;stroke:#9370DB;stroke-width:1px;}#my-svg #statediagram-barbEnd{fill:#333333;}#my-svg .statediagram-cluster rect{fill:#ECECFF;stroke:#9370DB;stroke-width:1px;}#my-svg .cluster-label,#my-svg .nodeLabel{color:#131300;}#my-svg .statediagram-cluster rect.outer{rx:5px;ry:5px;}#my-svg .statediagram-state .divider{stroke:#9370DB;}#my-svg .statediagram-state .title-state{rx:5px;ry:5px;}#my-svg .statediagram-cluster.statediagram-cluster .inner{fill:white;}#my-svg .statediagram-cluster.statediagram-cluster-alt .inner{fill:#f0f0f0;}#my-svg .statediagram-cluster .inner{rx:0;ry:0;}#my-svg .statediagram-state rect.basic{rx:5px;ry:5px;}#my-svg .statediagram-state rect.divider{stroke-dasharray:10,10;fill:#f0f0f0;}#my-svg .note-edge{stroke-dasharray:5;}#my-svg .statediagram-note rect{fill:#fff5ad;stroke:#aaaa33;stroke-width:1px;rx:0;ry:0;}#my-svg .statediagram-note rect{fill:#fff5ad;stroke:#aaaa33;stroke-width:1px;rx:0;ry:0;}#my-svg .statediagram-note text{fill:black;}#my-svg .statediagram-note .nodeLabel{color:black;}#my-svg .statediagram .edgeLabel{color:red;}#my-svg #dependencyStart,#my-svg #dependencyEnd{fill:#333333;stroke:#333333;stroke-width:1;}#my-svg .statediagramTitleText{text-anchor:middle;font-size:18px;fill:#333;}#my-svg :root{--mermaid-font-family:"trebuchet ms",verdana,arial,sans-serif;}#my-svg .accept&gt;*{fill:#9FE1CB!important;stroke:#0F6E56!important;stroke-width:3px!important;}#my-svg .accept span{fill:#9FE1CB!important;stroke:#0F6E56!important;stroke-width:3px!important;}</style><g><defs><marker orient="auto" markerUnits="userSpaceOnUse" markerHeight="14" markerWidth="20" refY="7" refX="19" id="my-svg_stateDiagram-barbEnd"><path d="M 19,7 L9,13 L14,7 L9,1 Z"/></marker></defs><g class="root"><g class="clusters"/><g class="edgePaths"><path marker-end="url(#my-svg_stateDiagram-barbEnd)" style=";fill:none" class="edge-thickness-normal edge-pattern-solid transition" id="edge0" d="M22,286.3L26.167,286.3C30.333,286.3,38.667,286.3,47,286.3C55.333,286.3,63.667,286.3,67.833,286.3L72,286.3"/><path marker-end="url(#my-svg_stateDiagram-barbEnd)" style=";fill:none" class="edge-thickness-normal edge-pattern-solid transition" id="edge1" d="M100.762,266.3L107.829,248.433C114.896,230.567,129.03,194.833,141.007,176.967C152.984,159.1,162.805,159.1,167.715,159.1L172.625,159.1"/><path marker-end="url(#my-svg_stateDiagram-barbEnd)" style=";fill:none" class="edge-thickness-normal edge-pattern-solid transition" id="edge2" d="M100.436,306.3L107.557,325.079C114.679,343.858,128.921,381.417,140.953,400.196C152.984,418.975,162.805,418.975,167.715,418.975L172.625,418.975"/><path marker-end="url(#my-svg_stateDiagram-barbEnd)" style=";fill:none" class="edge-thickness-normal edge-pattern-solid transition" id="edge3" d="M214.328,149.982L219.238,147.835C224.148,145.688,233.969,141.394,243.789,139.247C253.609,137.1,263.43,137.1,268.34,137.1L273.25,137.1"/><path marker-end="url(#my-svg_stateDiagram-barbEnd)" style=";fill:none" class="edge-thickness-normal edge-pattern-solid transition" id="edge4" d="M202.656,179.1L209.511,194.038C216.367,208.975,230.078,238.85,241.844,257.152C253.609,275.454,263.43,282.183,268.34,285.548L273.25,288.912"/><path marker-end="url(#my-svg_stateDiagram-barbEnd)" style=";fill:none" class="edge-thickness-normal edge-pattern-solid transition" id="edge5" d="M314.953,123.848L319.863,120.728C324.773,117.607,334.594,111.366,344.414,108.246C354.234,105.125,364.055,105.125,368.965,105.125L373.875,105.125"/><path marker-end="url(#my-svg_stateDiagram-barbEnd)" style=";fill:none" class="edge-thickness-normal edge-pattern-solid transition" id="edge6" d="M311.273,157.1L316.797,163.533C322.32,169.967,333.367,182.833,343.801,192.631C354.234,202.429,364.055,209.158,368.965,212.523L373.875,215.887"/><path marker-end="url(#my-svg_stateDiagram-barbEnd)" style=";fill:none" class="edge-thickness-normal edge-pattern-solid transition" id="edge7" d="M206.415,398.975L212.644,389.346C218.873,379.717,231.331,360.458,242.47,347.121C253.609,333.783,263.43,326.366,268.34,322.657L273.25,318.949"/><path marker-end="url(#my-svg_stateDiagram-barbEnd)" style=";fill:none" class="edge-thickness-normal edge-pattern-solid transition" id="edge8" d="M214.328,431.574L219.238,434.541C224.148,437.508,233.969,443.441,243.789,446.408C253.609,449.375,263.43,449.375,268.34,449.375L273.25,449.375"/><path marker-end="url(#my-svg_stateDiagram-barbEnd)" style=";fill:none" class="edge-thickness-normal edge-pattern-solid transition" id="edge9" d="M314.953,294.082L319.863,291.935C324.773,289.788,334.594,285.494,344.603,278.176C354.611,270.858,364.809,260.517,369.907,255.346L375.006,250.175"/><path marker-end="url(#my-svg_stateDiagram-barbEnd)" style=";fill:none" class="edge-thickness-normal edge-pattern-solid transition" id="edge10" d="M314.953,312.318L319.863,314.465C324.773,316.612,334.594,320.906,344.414,327.213C354.234,333.52,364.055,341.84,368.965,346L373.875,350.159"/><path marker-end="url(#my-svg_stateDiagram-barbEnd)" style=";fill:none" class="edge-thickness-normal edge-pattern-solid transition" id="edge11" d="M415.578,221.057L420.488,218.91C425.398,216.763,435.219,212.469,447.095,193.968C458.97,175.467,472.902,142.758,479.867,126.404L486.833,110.05"/><path marker-end="url(#my-svg_stateDiagram-barbEnd)" style=";fill:none" class="edge-thickness-normal edge-pattern-solid transition" id="edge12" d="M415.578,239.293L420.488,241.44C425.398,243.587,435.219,247.881,445.039,252.917C454.859,257.953,464.68,263.73,469.59,266.619L474.5,269.508"/><path marker-end="url(#my-svg_stateDiagram-barbEnd)" style=";fill:none" class="edge-thickness-normal edge-pattern-solid transition" id="edge13" d="M310.999,429.375L316.568,422.783C322.137,416.192,333.276,403.008,343.755,394.27C354.234,385.531,364.055,381.237,368.965,379.09L373.875,376.943"/><path style=";fill:none" class="edge-thickness-normal edge-pattern-solid transition" id="q02-cyclic-special-1" d="M314.953,445.842L319.863,445.01C324.773,444.178,334.594,442.514,347.881,441.682C361.168,440.85,377.922,440.85,386.299,440.85L394.677,440.85"/><path style=";fill:none" class="edge-thickness-normal edge-pattern-solid transition" id="q02-cyclic-special-mid" d="M394.777,440.85L403.154,440.85C411.531,440.85,428.285,440.85,445.039,445.287C461.793,449.725,478.547,458.599,486.924,463.036L495.302,467.474"/><path marker-end="url(#my-svg_stateDiagram-barbEnd)" style=";fill:none" class="edge-thickness-normal edge-pattern-solid transition" id="q02-cyclic-special-2" d="M495.302,467.508L486.924,468.907C478.547,470.306,461.793,473.103,445.031,474.501C428.268,475.9,411.497,475.9,394.727,475.9C377.956,475.9,361.185,475.9,347.889,473.311C334.594,470.723,324.773,465.545,319.863,462.957L314.953,460.368"/><path marker-end="url(#my-svg_stateDiagram-barbEnd)" style=";fill:none" class="edge-thickness-normal edge-pattern-solid transition" id="edge15" d="M414.447,347.825L419.546,342.654C424.645,337.483,434.842,327.142,444.851,318.553C454.859,309.964,464.68,303.127,469.59,299.709L474.5,296.291"/><path style=";fill:none" class="edge-thickness-normal edge-pattern-solid transition" id="q12-cyclic-special-1" d="M415.578,367.825L420.488,367.825C425.398,367.825,435.219,367.825,448.506,367.825C461.793,367.825,478.547,367.825,486.924,367.825L495.302,367.825"/><path style=";fill:none" class="edge-thickness-normal edge-pattern-solid transition" id="q12-cyclic-special-mid" d="M495.402,367.825L503.779,367.825C512.156,367.825,528.91,367.825,545.664,370.743C562.418,373.661,579.172,379.497,587.549,382.415L595.927,385.333"/><path marker-end="url(#my-svg_stateDiagram-barbEnd)" style=";fill:none" class="edge-thickness-normal edge-pattern-solid transition" id="q12-cyclic-special-2" d="M595.927,385.37L587.549,388.779C579.172,392.189,562.418,399.007,545.656,402.416C528.893,405.825,512.122,405.825,495.352,405.825C478.581,405.825,461.81,405.825,448.514,402.116C435.219,398.408,425.398,390.991,420.488,387.282L415.578,383.574"/><path marker-end="url(#my-svg_stateDiagram-barbEnd)" style=";fill:none" class="edge-thickness-normal edge-pattern-solid transition" id="edge17" d="M512.99,261.775L518.435,255.6C523.881,249.425,534.773,237.075,545.128,230.9C555.484,224.725,565.305,224.725,570.215,224.725L575.125,224.725"/><path style=";fill:none" class="edge-thickness-normal edge-pattern-solid transition" id="q22-cyclic-special-1" d="M516.203,287.173L521.113,288.444C526.023,289.715,535.844,292.258,549.131,293.529C562.418,294.8,579.172,294.8,587.549,294.8L595.927,294.8"/><path style=";fill:none" class="edge-thickness-normal edge-pattern-solid transition" id="q22-cyclic-special-mid" d="M596.027,294.8L604.404,294.8C612.781,294.8,629.535,294.8,642.822,297.716C656.109,300.632,665.93,306.464,670.84,309.379L675.75,312.295"/><path marker-end="url(#my-svg_stateDiagram-barbEnd)" style=";fill:none" class="edge-thickness-normal edge-pattern-solid transition" id="q22-cyclic-special-2" d="M675.75,312.36L670.84,315.766C665.93,319.173,656.109,325.987,642.814,329.393C629.518,332.8,612.747,332.8,595.977,332.8C579.206,332.8,562.435,332.8,548.951,327.629C535.467,322.458,525.27,312.117,520.171,306.946L515.072,301.775"/><path style=";fill:none" class="edge-thickness-normal edge-pattern-solid transition" id="q30-cyclic-special-1" d="M406.547,85.125L412.963,74.271C419.378,63.417,432.209,41.708,447.001,30.854C461.793,20,478.547,20,486.924,20L495.302,20"/><path style=";fill:none" class="edge-thickness-normal edge-pattern-solid transition" id="q30-cyclic-special-mid" d="M495.402,20L503.779,20C512.156,20,528.91,20,545.666,31.008C562.422,42.017,579.18,64.033,587.559,75.042L595.939,86.05"/><path marker-end="url(#my-svg_stateDiagram-barbEnd)" style=";fill:none" class="edge-thickness-normal edge-pattern-solid transition" id="q30-cyclic-special-2" d="M595.949,86.15L587.568,101.15C579.187,116.15,562.426,146.15,545.659,161.15C528.893,176.15,512.122,176.15,495.352,176.15C478.581,176.15,461.81,176.15,447.4,167.646C432.991,159.142,420.942,142.133,414.918,133.629L408.894,125.125"/><path marker-end="url(#my-svg_stateDiagram-barbEnd)" style=";fill:none" class="edge-thickness-normal edge-pattern-solid transition" id="edge20" d="M415.578,98.877L420.488,97.406C425.398,95.935,435.219,92.992,445.039,91.521C454.859,90.05,464.68,90.05,469.59,90.05L474.5,90.05"/><path style=";fill:none" class="edge-thickness-normal edge-pattern-solid transition" id="q31-cyclic-special-1" d="M516.203,82.165L521.113,80.309C526.023,78.452,535.844,74.738,549.131,67.05C562.418,59.362,579.172,47.698,587.549,41.867L595.927,36.035"/><path style=";fill:none" class="edge-thickness-normal edge-pattern-solid transition" id="q31-cyclic-special-mid" d="M596.027,36L604.404,36C612.781,36,629.535,36,642.825,42.929C656.114,49.858,665.939,63.717,670.852,70.646L675.765,77.575"/><path marker-end="url(#my-svg_stateDiagram-barbEnd)" style=";fill:none" class="edge-thickness-normal edge-pattern-solid transition" id="q31-cyclic-special-2" d="M675.781,77.675L670.866,90.504C665.95,103.333,656.12,128.992,642.819,141.821C629.518,154.65,612.747,154.65,595.977,154.65C579.206,154.65,562.435,154.65,548.26,147.217C534.085,139.783,522.507,124.917,516.718,117.483L510.928,110.05"/><path marker-end="url(#my-svg_stateDiagram-barbEnd)" style=";fill:none" class="edge-thickness-normal edge-pattern-solid transition" id="edge22" d="M516.203,100.432L521.113,102.876C526.023,105.321,535.844,110.211,547.609,127.593C559.375,144.975,573.086,174.85,579.942,189.788L586.798,204.725"/><path style=";fill:none" class="edge-thickness-normal edge-pattern-solid transition" id="q32-cyclic-special-1" d="M616.828,217.462L621.738,215.752C626.648,214.041,636.469,210.621,646.289,208.91C656.109,207.2,665.93,207.2,670.84,207.2L675.75,207.2"/><path style=";fill:none" class="edge-thickness-normal edge-pattern-solid transition" id="q32-cyclic-special-mid" d="M675.85,207.2L680.76,207.2C685.67,207.2,695.491,207.2,705.311,210.116C715.131,213.032,724.952,218.864,729.862,221.779L734.772,224.695"/><path marker-end="url(#my-svg_stateDiagram-barbEnd)" style=";fill:none" class="edge-thickness-normal edge-pattern-solid transition" id="q32-cyclic-special-2" d="M734.772,224.755L729.862,227.671C724.952,230.586,715.131,236.418,705.303,239.334C695.474,242.25,685.637,242.25,675.8,242.25C665.963,242.25,656.126,242.25,646.297,240.54C636.469,238.829,626.648,235.409,621.738,233.698L616.828,231.988"/></g><g class="edgeLabels"><g class="edgeLabel"><g transform="translate(0, 0)" class="label"><foreignObject height="0" width="0"><div style="display: table-cell; white-space: nowrap; line-height: 1.5; max-width: 200px; text-align: center;" class="labelBkg" xmlns="http://www.w3.org/1999/xhtml"><span class="edgeLabel"></span></div></foreignObject></g></g><g transform="translate(143.1640625, 159.10000000149012)" class="edgeLabel"><g transform="translate(-4.203125, -12)" class="label"><foreignObject height="24" width="8.40625"><div style="display: table-cell; white-space: nowrap; line-height: 1.5; max-width: 200px; text-align: center;" class="labelBkg" xmlns="http://www.w3.org/1999/xhtml"><span class="edgeLabel"><p>a</p></span></div></foreignObject></g></g><g transform="translate(143.1640625, 418.97500000707805)" class="edgeLabel"><g transform="translate(-4.4609375, -12)" class="label"><foreignObject height="24" width="8.921875"><div style="display: table-cell; white-space: nowrap; line-height: 1.5; max-width: 200px; text-align: center;" class="labelBkg" xmlns="http://www.w3.org/1999/xhtml"><span class="edgeLabel"><p>b</p></span></div></foreignObject></g></g><g transform="translate(243.7890625, 137.10000000149012)" class="edgeLabel"><g transform="translate(-4.203125, -12)" class="label"><foreignObject height="24" width="8.40625"><div style="display: table-cell; white-space: nowrap; line-height: 1.5; max-width: 200px; text-align: center;" class="labelBkg" xmlns="http://www.w3.org/1999/xhtml"><span class="edgeLabel"><p>a</p></span></div></foreignObject></g></g><g transform="translate(243.7890625, 268.72500000335276)" class="edgeLabel"><g transform="translate(-4.4609375, -12)" class="label"><foreignObject height="24" width="8.921875"><div style="display: table-cell; white-space: nowrap; line-height: 1.5; max-width: 200px; text-align: center;" class="labelBkg" xmlns="http://www.w3.org/1999/xhtml"><span class="edgeLabel"><p>b</p></span></div></foreignObject></g></g><g transform="translate(344.4140625, 105.12500000186265)" class="edgeLabel"><g transform="translate(-4.203125, -12)" class="label"><foreignObject height="24" width="8.40625"><div style="display: table-cell; white-space: nowrap; line-height: 1.5; max-width: 200px; text-align: center;" class="labelBkg" xmlns="http://www.w3.org/1999/xhtml"><span class="edgeLabel"><p>a</p></span></div></foreignObject></g></g><g transform="translate(344.4140625, 195.70000000298023)" class="edgeLabel"><g transform="translate(-4.4609375, -12)" class="label"><foreignObject height="24" width="8.921875"><div style="display: table-cell; white-space: nowrap; line-height: 1.5; max-width: 200px; text-align: center;" class="labelBkg" xmlns="http://www.w3.org/1999/xhtml"><span class="edgeLabel"><p>b</p></span></div></foreignObject></g></g><g transform="translate(243.7890625, 341.20000000298023)" class="edgeLabel"><g transform="translate(-4.203125, -12)" class="label"><foreignObject height="24" width="8.40625"><div style="display: table-cell; white-space: nowrap; line-height: 1.5; max-width: 200px; text-align: center;" class="labelBkg" xmlns="http://www.w3.org/1999/xhtml"><span class="edgeLabel"><p>a</p></span></div></foreignObject></g></g><g transform="translate(243.7890625, 449.37500000558794)" class="edgeLabel"><g transform="translate(-4.4609375, -12)" class="label"><foreignObject height="24" width="8.921875"><div style="display: table-cell; white-space: nowrap; line-height: 1.5; max-width: 200px; text-align: center;" class="labelBkg" xmlns="http://www.w3.org/1999/xhtml"><span class="edgeLabel"><p>b</p></span></div></foreignObject></g></g><g transform="translate(344.4140625, 281.20000000298023)" class="edgeLabel"><g transform="translate(-4.203125, -12)" class="label"><foreignObject height="24" width="8.40625"><div style="display: table-cell; white-space: nowrap; line-height: 1.5; max-width: 200px; text-align: center;" class="labelBkg" xmlns="http://www.w3.org/1999/xhtml"><span class="edgeLabel"><p>a</p></span></div></foreignObject></g></g><g transform="translate(344.4140625, 325.20000000298023)" class="edgeLabel"><g transform="translate(-4.4609375, -12)" class="label"><foreignObject height="24" width="8.921875"><div style="display: table-cell; white-space: nowrap; line-height: 1.5; max-width: 200px; text-align: center;" class="labelBkg" xmlns="http://www.w3.org/1999/xhtml"><span class="edgeLabel"><p>b</p></span></div></foreignObject></g></g><g transform="translate(445.0390625, 208.1750000026077)" class="edgeLabel"><g transform="translate(-4.203125, -12)" class="label"><foreignObject height="24" width="8.40625"><div style="display: table-cell; white-space: nowrap; line-height: 1.5; max-width: 200px; text-align: center;" class="labelBkg" xmlns="http://www.w3.org/1999/xhtml"><span class="edgeLabel"><p>a</p></span></div></foreignObject></g></g><g transform="translate(445.0390625, 252.1750000026077)" class="edgeLabel"><g transform="translate(-4.4609375, -12)" class="label"><foreignObject height="24" width="8.921875"><div style="display: table-cell; white-space: nowrap; line-height: 1.5; max-width: 200px; text-align: center;" class="labelBkg" xmlns="http://www.w3.org/1999/xhtml"><span class="edgeLabel"><p>b</p></span></div></foreignObject></g></g><g transform="translate(344.4140625, 389.8250000048429)" class="edgeLabel"><g transform="translate(-4.203125, -12)" class="label"><foreignObject height="24" width="8.40625"><div style="display: table-cell; white-space: nowrap; line-height: 1.5; max-width: 200px; text-align: center;" class="labelBkg" xmlns="http://www.w3.org/1999/xhtml"><span class="edgeLabel"><p>a</p></span></div></foreignObject></g></g><g class="edgeLabel"><g transform="translate(0, 0)" class="label"><foreignObject height="0" width="0"><div style="display: table-cell; white-space: nowrap; line-height: 1.5; max-width: 200px; text-align: center;" class="labelBkg" xmlns="http://www.w3.org/1999/xhtml"><span class="edgeLabel"></span></div></foreignObject></g></g><g transform="translate(445.0390625, 440.8500000052154)" class="edgeLabel"><g transform="translate(-4.4609375, -12)" class="label"><foreignObject height="24" width="8.921875"><div style="display: table-cell; white-space: nowrap; line-height: 1.5; max-width: 200px; text-align: center;" class="labelBkg" xmlns="http://www.w3.org/1999/xhtml"><span class="edgeLabel"><p>b</p></span></div></foreignObject></g></g><g class="edgeLabel"><g transform="translate(0, 0)" class="label"><foreignObject height="0" width="0"><div style="display: table-cell; white-space: nowrap; line-height: 1.5; max-width: 200px; text-align: center;" class="labelBkg" xmlns="http://www.w3.org/1999/xhtml"><span class="edgeLabel"></span></div></foreignObject></g></g><g transform="translate(445.0390625, 316.80000000447035)" class="edgeLabel"><g transform="translate(-4.203125, -12)" class="label"><foreignObject height="24" width="8.40625"><div style="display: table-cell; white-space: nowrap; line-height: 1.5; max-width: 200px; text-align: center;" class="labelBkg" xmlns="http://www.w3.org/1999/xhtml"><span class="edgeLabel"><p>a</p></span></div></foreignObject></g></g><g class="edgeLabel"><g transform="translate(0, 0)" class="label"><foreignObject height="0" width="0"><div style="display: table-cell; white-space: nowrap; line-height: 1.5; max-width: 200px; text-align: center;" class="labelBkg" xmlns="http://www.w3.org/1999/xhtml"><span class="edgeLabel"></span></div></foreignObject></g></g><g transform="translate(545.6640625, 367.8250000048429)" class="edgeLabel"><g transform="translate(-4.4609375, -12)" class="label"><foreignObject height="24" width="8.921875"><div style="display: table-cell; white-space: nowrap; line-height: 1.5; max-width: 200px; text-align: center;" class="labelBkg" xmlns="http://www.w3.org/1999/xhtml"><span class="edgeLabel"><p>b</p></span></div></foreignObject></g></g><g class="edgeLabel"><g transform="translate(0, 0)" class="label"><foreignObject height="0" width="0"><div style="display: table-cell; white-space: nowrap; line-height: 1.5; max-width: 200px; text-align: center;" class="labelBkg" xmlns="http://www.w3.org/1999/xhtml"><span class="edgeLabel"></span></div></foreignObject></g></g><g transform="translate(545.6640625, 224.72500000335276)" class="edgeLabel"><g transform="translate(-4.203125, -12)" class="label"><foreignObject height="24" width="8.40625"><div style="display: table-cell; white-space: nowrap; line-height: 1.5; max-width: 200px; text-align: center;" class="labelBkg" xmlns="http://www.w3.org/1999/xhtml"><span class="edgeLabel"><p>a</p></span></div></foreignObject></g></g><g class="edgeLabel"><g transform="translate(0, 0)" class="label"><foreignObject height="0" width="0"><div style="display: table-cell; white-space: nowrap; line-height: 1.5; max-width: 200px; text-align: center;" class="labelBkg" xmlns="http://www.w3.org/1999/xhtml"><span class="edgeLabel"></span></div></foreignObject></g></g><g transform="translate(646.2890625, 294.80000000447035)" class="edgeLabel"><g transform="translate(-4.4609375, -12)" class="label"><foreignObject height="24" width="8.921875"><div style="display: table-cell; white-space: nowrap; line-height: 1.5; max-width: 200px; text-align: center;" class="labelBkg" xmlns="http://www.w3.org/1999/xhtml"><span class="edgeLabel"><p>b</p></span></div></foreignObject></g></g><g class="edgeLabel"><g transform="translate(0, 0)" class="label"><foreignObject height="0" width="0"><div style="display: table-cell; white-space: nowrap; line-height: 1.5; max-width: 200px; text-align: center;" class="labelBkg" xmlns="http://www.w3.org/1999/xhtml"><span class="edgeLabel"></span></div></foreignObject></g></g><g class="edgeLabel"><g transform="translate(0, 0)" class="label"><foreignObject height="0" width="0"><div style="display: table-cell; white-space: nowrap; line-height: 1.5; max-width: 200px; text-align: center;" class="labelBkg" xmlns="http://www.w3.org/1999/xhtml"><span class="edgeLabel"></span></div></foreignObject></g></g><g transform="translate(545.6640625, 20)" class="edgeLabel"><g transform="translate(-4.203125, -12)" class="label"><foreignObject height="24" width="8.40625"><div style="display: table-cell; white-space: nowrap; line-height: 1.5; max-width: 200px; text-align: center;" class="labelBkg" xmlns="http://www.w3.org/1999/xhtml"><span class="edgeLabel"><p>a</p></span></div></foreignObject></g></g><g class="edgeLabel"><g transform="translate(0, 0)" class="label"><foreignObject height="0" width="0"><div style="display: table-cell; white-space: nowrap; line-height: 1.5; max-width: 200px; text-align: center;" class="labelBkg" xmlns="http://www.w3.org/1999/xhtml"><span class="edgeLabel"></span></div></foreignObject></g></g><g transform="translate(445.0390625, 90.05000000074506)" class="edgeLabel"><g transform="translate(-4.4609375, -12)" class="label"><foreignObject height="24" width="8.921875"><div style="display: table-cell; white-space: nowrap; line-height: 1.5; max-width: 200px; text-align: center;" class="labelBkg" xmlns="http://www.w3.org/1999/xhtml"><span class="edgeLabel"><p>b</p></span></div></foreignObject></g></g><g class="edgeLabel"><g transform="translate(0, 0)" class="label"><foreignObject height="0" width="0"><div style="display: table-cell; white-space: nowrap; line-height: 1.5; max-width: 200px; text-align: center;" class="labelBkg" xmlns="http://www.w3.org/1999/xhtml"><span class="edgeLabel"></span></div></foreignObject></g></g><g transform="translate(646.2890625, 36)" class="edgeLabel"><g transform="translate(-4.203125, -12)" class="label"><foreignObject height="24" width="8.40625"><div style="display: table-cell; white-space: nowrap; line-height: 1.5; max-width: 200px; text-align: center;" class="labelBkg" xmlns="http://www.w3.org/1999/xhtml"><span class="edgeLabel"><p>a</p></span></div></foreignObject></g></g><g class="edgeLabel"><g transform="translate(0, 0)" class="label"><foreignObject height="0" width="0"><div style="display: table-cell; white-space: nowrap; line-height: 1.5; max-width: 200px; text-align: center;" class="labelBkg" xmlns="http://www.w3.org/1999/xhtml"><span class="edgeLabel"></span></div></foreignObject></g></g><g transform="translate(545.6640625, 115.10000000149012)" class="edgeLabel"><g transform="translate(-4.4609375, -12)" class="label"><foreignObject height="24" width="8.921875"><div style="display: table-cell; white-space: nowrap; line-height: 1.5; max-width: 200px; text-align: center;" class="labelBkg" xmlns="http://www.w3.org/1999/xhtml"><span class="edgeLabel"><p>b</p></span></div></foreignObject></g></g><g class="edgeLabel"><g transform="translate(0, 0)" class="label"><foreignObject height="0" width="0"><div style="display: table-cell; white-space: nowrap; line-height: 1.5; max-width: 200px; text-align: center;" class="labelBkg" xmlns="http://www.w3.org/1999/xhtml"><span class="edgeLabel"></span></div></foreignObject></g></g><g transform="translate(705.3109375014901, 207.20000000298023)" class="edgeLabel"><g transform="translate(-4.4609375, -12)" class="label"><foreignObject height="24" width="8.921875"><div style="display: table-cell; white-space: nowrap; line-height: 1.5; max-width: 200px; text-align: center;" class="labelBkg" xmlns="http://www.w3.org/1999/xhtml"><span class="edgeLabel"><p>b</p></span></div></foreignObject></g></g><g class="edgeLabel"><g transform="translate(0, 0)" class="label"><foreignObject height="0" width="0"><div style="display: table-cell; white-space: nowrap; line-height: 1.5; max-width: 200px; text-align: center;" class="labelBkg" xmlns="http://www.w3.org/1999/xhtml"><span class="edgeLabel"></span></div></foreignObject></g></g></g><g class="nodes"><g transform="translate(15, 286.30000000447035)" id="state-root_start-0" class="node default"><circle height="14" width="14" r="7" class="state-start"/></g><g transform="translate(92.8515625, 286.30000000447035)" id="state-q00-2" class="node  statediagram-state"><rect height="40" width="41.703125" y="-20" x="-20.8515625" ry="5" rx="5" style="" class="basic label-container"/><g transform="translate(-12.8515625, -12)" style="" class="label"><rect/><foreignObject height="24" width="25.703125"><div style="display: table-cell; white-space: nowrap; line-height: 1.5; max-width: 200px; text-align: center;" xmlns="http://www.w3.org/1999/xhtml"><span class="nodeLabel"><p>q00</p></span></div></foreignObject></g></g><g transform="translate(193.4765625, 159.10000000149012)" id="state-q10-4" class="node  statediagram-state"><rect height="40" width="41.703125" y="-20" x="-20.8515625" ry="5" rx="5" style="" class="basic label-container"/><g transform="translate(-12.8515625, -12)" style="" class="label"><rect/><foreignObject height="24" width="25.703125"><div style="display: table-cell; white-space: nowrap; line-height: 1.5; max-width: 200px; text-align: center;" xmlns="http://www.w3.org/1999/xhtml"><span class="nodeLabel"><p>q10</p></span></div></foreignObject></g></g><g transform="translate(193.4765625, 418.97500000707805)" id="state-q01-8" class="node  statediagram-state"><rect height="40" width="41.703125" y="-20" x="-20.8515625" ry="5" rx="5" style="" class="basic label-container"/><g transform="translate(-12.8515625, -12)" style="" class="label"><rect/><foreignObject height="24" width="25.703125"><div style="display: table-cell; white-space: nowrap; line-height: 1.5; max-width: 200px; text-align: center;" xmlns="http://www.w3.org/1999/xhtml"><span class="nodeLabel"><p>q01</p></span></div></foreignObject></g></g><g transform="translate(294.1015625, 137.10000000149012)" id="state-q20-6" class="node  statediagram-state"><rect height="40" width="41.703125" y="-20" x="-20.8515625" ry="5" rx="5" style="" class="basic label-container"/><g transform="translate(-12.8515625, -12)" style="" class="label"><rect/><foreignObject height="24" width="25.703125"><div style="display: table-cell; white-space: nowrap; line-height: 1.5; max-width: 200px; text-align: center;" xmlns="http://www.w3.org/1999/xhtml"><span class="nodeLabel"><p>q20</p></span></div></foreignObject></g></g><g transform="translate(294.1015625, 303.20000000298023)" id="state-q11-10" class="node  statediagram-state"><rect height="40" width="41.703125" y="-20" x="-20.8515625" ry="5" rx="5" style="" class="basic label-container"/><g transform="translate(-12.8515625, -12)" style="" class="label"><rect/><foreignObject height="24" width="25.703125"><div style="display: table-cell; white-space: nowrap; line-height: 1.5; max-width: 200px; text-align: center;" xmlns="http://www.w3.org/1999/xhtml"><span class="nodeLabel"><p>q11</p></span></div></foreignObject></g></g><g transform="translate(394.7265625, 105.12500000186265)" id="state-q30-20" class="node  statediagram-state"><rect height="40" width="41.703125" y="-20" x="-20.8515625" ry="5" rx="5" style="" class="basic label-container"/><g transform="translate(-12.8515625, -12)" style="" class="label"><rect/><foreignObject height="24" width="25.703125"><div style="display: table-cell; white-space: nowrap; line-height: 1.5; max-width: 200px; text-align: center;" xmlns="http://www.w3.org/1999/xhtml"><span class="nodeLabel"><p>q30</p></span></div></foreignObject></g></g><g transform="translate(394.7265625, 230.1750000026077)" id="state-q21-12" class="node  statediagram-state"><rect height="40" width="41.703125" y="-20" x="-20.8515625" ry="5" rx="5" style="" class="basic label-container"/><g transform="translate(-12.8515625, -12)" style="" class="label"><rect/><foreignObject height="24" width="25.703125"><div style="display: table-cell; white-space: nowrap; line-height: 1.5; max-width: 200px; text-align: center;" xmlns="http://www.w3.org/1999/xhtml"><span class="nodeLabel"><p>q21</p></span></div></foreignObject></g></g><g transform="translate(294.1015625, 449.37500000558794)" id="state-q02-14" class="node  statediagram-state"><rect height="40" width="41.703125" y="-20" x="-20.8515625" ry="5" rx="5" style="" class="basic label-container"/><g transform="translate(-12.8515625, -12)" style="" class="label"><rect/><foreignObject height="24" width="25.703125"><div style="display: table-cell; white-space: nowrap; line-height: 1.5; max-width: 200px; text-align: center;" xmlns="http://www.w3.org/1999/xhtml"><span class="nodeLabel"><p>q02</p></span></div></foreignObject></g></g><g transform="translate(394.7265625, 367.8250000048429)" id="state-q12-16" class="node  statediagram-state"><rect height="40" width="41.703125" y="-20" x="-20.8515625" ry="5" rx="5" style="" class="basic label-container"/><g transform="translate(-12.8515625, -12)" style="" class="label"><rect/><foreignObject height="24" width="25.703125"><div style="display: table-cell; white-space: nowrap; line-height: 1.5; max-width: 200px; text-align: center;" xmlns="http://www.w3.org/1999/xhtml"><span class="nodeLabel"><p>q12</p></span></div></foreignObject></g></g><g transform="translate(495.3515625, 90.05000000074506)" id="state-q31-22" class="node  statediagram-state"><rect height="40" width="41.703125" y="-20" x="-20.8515625" ry="5" rx="5" style="" class="basic label-container"/><g transform="translate(-12.8515625, -12)" style="" class="label"><rect/><foreignObject height="24" width="25.703125"><div style="display: table-cell; white-space: nowrap; line-height: 1.5; max-width: 200px; text-align: center;" xmlns="http://www.w3.org/1999/xhtml"><span class="nodeLabel"><p>q31</p></span></div></foreignObject></g></g><g transform="translate(495.3515625, 281.7750000040978)" id="state-q22-18" class="node  statediagram-state"><rect height="40" width="41.703125" y="-20" x="-20.8515625" ry="5" rx="5" style="" class="basic label-container"/><g transform="translate(-12.8515625, -12)" style="" class="label"><rect/><foreignObject height="24" width="25.703125"><div style="display: table-cell; white-space: nowrap; line-height: 1.5; max-width: 200px; text-align: center;" xmlns="http://www.w3.org/1999/xhtml"><span class="nodeLabel"><p>q22</p></span></div></foreignObject></g></g><g transform="translate(595.9765625, 224.72500000335276)" id="state-q32-24" class="node accept statediagram-state"><rect height="40" width="41.703125" y="-20" x="-20.8515625" ry="5" rx="5" style="fill:#9FE1CB !important;stroke:#0F6E56 !important;stroke-width:3px !important" class="basic label-container"/><g transform="translate(-12.8515625, -12)" style="" class="label"><rect/><foreignObject height="24" width="25.703125"><div style="display: table-cell; white-space: nowrap; line-height: 1.5; max-width: 200px; text-align: center;" xmlns="http://www.w3.org/1999/xhtml"><span class="nodeLabel"><p>q32</p></span></div></foreignObject></g></g><g transform="translate(394.7265625, 440.8500000052154)" id="q02---q02---1" class="label edgeLabel"><rect height="0.1" width="0.1"/><g transform="translate(0, 0)" style="" class="label"><rect/><foreignObject height="0" width="0"><div style="display: table-cell; white-space: nowrap; line-height: 1.5; max-width: 10px; text-align: center;" xmlns="http://www.w3.org/1999/xhtml"><span class="nodeLabel"></span></div></foreignObject></g></g><g transform="translate(495.3515625, 467.5000000074506)" id="q02---q02---2" class="label edgeLabel"><rect height="0.1" width="0.1"/><g transform="translate(0, 0)" style="" class="label"><rect/><foreignObject height="0" width="0"><div style="display: table-cell; white-space: nowrap; line-height: 1.5; max-width: 10px; text-align: center;" xmlns="http://www.w3.org/1999/xhtml"><span class="nodeLabel"></span></div></foreignObject></g></g><g transform="translate(495.3515625, 367.8250000048429)" id="q12---q12---1" class="label edgeLabel"><rect height="0.1" width="0.1"/><g transform="translate(0, 0)" style="" class="label"><rect/><foreignObject height="0" width="0"><div style="display: table-cell; white-space: nowrap; line-height: 1.5; max-width: 10px; text-align: center;" xmlns="http://www.w3.org/1999/xhtml"><span class="nodeLabel"></span></div></foreignObject></g></g><g transform="translate(595.9765625, 385.3500000052154)" id="q12---q12---2" class="label edgeLabel"><rect height="0.1" width="0.1"/><g transform="translate(0, 0)" style="" class="label"><rect/><foreignObject height="0" width="0"><div style="display: table-cell; white-space: nowrap; line-height: 1.5; max-width: 10px; text-align: center;" xmlns="http://www.w3.org/1999/xhtml"><span class="nodeLabel"></span></div></foreignObject></g></g><g transform="translate(595.9765625, 294.80000000447035)" id="q22---q22---1" class="label edgeLabel"><rect height="0.1" width="0.1"/><g transform="translate(0, 0)" style="" class="label"><rect/><foreignObject height="0" width="0"><div style="display: table-cell; white-space: nowrap; line-height: 1.5; max-width: 10px; text-align: center;" xmlns="http://www.w3.org/1999/xhtml"><span class="nodeLabel"></span></div></foreignObject></g></g><g transform="translate(675.8000000007451, 312.3250000048429)" id="q22---q22---2" class="label edgeLabel"><rect height="0.1" width="0.1"/><g transform="translate(0, 0)" style="" class="label"><rect/><foreignObject height="0" width="0"><div style="display: table-cell; white-space: nowrap; line-height: 1.5; max-width: 10px; text-align: center;" xmlns="http://www.w3.org/1999/xhtml"><span class="nodeLabel"></span></div></foreignObject></g></g><g transform="translate(495.3515625, 20)" id="q30---q30---1" class="label edgeLabel"><rect height="0.1" width="0.1"/><g transform="translate(0, 0)" style="" class="label"><rect/><foreignObject height="0" width="0"><div style="display: table-cell; white-space: nowrap; line-height: 1.5; max-width: 10px; text-align: center;" xmlns="http://www.w3.org/1999/xhtml"><span class="nodeLabel"></span></div></foreignObject></g></g><g transform="translate(595.9765625, 86.10000000149012)" id="q30---q30---2" class="label edgeLabel"><rect height="0.1" width="0.1"/><g transform="translate(0, 0)" style="" class="label"><rect/><foreignObject height="0" width="0"><div style="display: table-cell; white-space: nowrap; line-height: 1.5; max-width: 10px; text-align: center;" xmlns="http://www.w3.org/1999/xhtml"><span class="nodeLabel"></span></div></foreignObject></g></g><g transform="translate(595.9765625, 36)" id="q31---q31---1" class="label edgeLabel"><rect height="0.1" width="0.1"/><g transform="translate(0, 0)" style="" class="label"><rect/><foreignObject height="0" width="0"><div style="display: table-cell; white-space: nowrap; line-height: 1.5; max-width: 10px; text-align: center;" xmlns="http://www.w3.org/1999/xhtml"><span class="nodeLabel"></span></div></foreignObject></g></g><g transform="translate(675.8000000007451, 77.62500000186265)" id="q31---q31---2" class="label edgeLabel"><rect height="0.1" width="0.1"/><g transform="translate(0, 0)" style="" class="label"><rect/><foreignObject height="0" width="0"><div style="display: table-cell; white-space: nowrap; line-height: 1.5; max-width: 10px; text-align: center;" xmlns="http://www.w3.org/1999/xhtml"><span class="nodeLabel"></span></div></foreignObject></g></g><g transform="translate(675.8000000007451, 207.20000000298023)" id="q32---q32---1" class="label edgeLabel"><rect height="0.1" width="0.1"/><g transform="translate(0, 0)" style="" class="label"><rect/><foreignObject height="0" width="0"><div style="display: table-cell; white-space: nowrap; line-height: 1.5; max-width: 10px; text-align: center;" xmlns="http://www.w3.org/1999/xhtml"><span class="nodeLabel"></span></div></foreignObject></g></g><g transform="translate(734.8218750022352, 224.72500000335276)" id="q32---q32---2" class="label edgeLabel"><rect height="0.1" width="0.1"/><g transform="translate(0, 0)" style="" class="label"><rect/><foreignObject height="0" width="0"><div style="display: table-cell; white-space: nowrap; line-height: 1.5; max-width: 10px; text-align: center;" xmlns="http://www.w3.org/1999/xhtml"><span class="nodeLabel"></span></div></foreignObject></g></g></g></g></g></svg>